<?xml version="1.0" standalone="no"?>
<!DOCTYPE svg PUBLIC "-//W3C//DTD SVG 20010904//EN"
 "http://www.w3.org/TR/2001/REC-SVG-20010904/DTD/svg10.dtd">
<svg version="1.0" xmlns="http://www.w3.org/2000/svg"
 width="153.000000pt" height="153.000000pt" viewBox="0 0 153.000000 153.000000"
 preserveAspectRatio="xMidYMid meet">

<g transform="translate(0.000000,153.000000) scale(0.100000,-0.100000)"
fill="#000000" stroke="none">
<path d="M0 765 l0 -765 765 0 765 0 0 765 0 765 -765 0 -765 0 0 -765z m936
628 c10 -10 36 -29 60 -43 23 -14 55 -41 70 -60 26 -33 26 -33 -17 6 -48 45
-79 64 -104 64 -13 0 -15 -7 -11 -32 3 -18 3 -26 0 -18 -10 24 -64 70 -82 70
-9 0 -34 -5 -55 -11 l-38 -10 88 -45 c48 -24 89 -40 91 -35 5 14 42 -21 42
-39 0 -9 12 -27 26 -41 14 -13 35 -37 46 -54 12 -18 2 -11 -23 17 -25 27 -55
48 -69 50 -16 2 -26 11 -30 26 -5 23 -53 55 -127 84 -45 19 -111 14 -120 -8
-3 -8 31 -49 79 -96 68 -68 92 -100 128 -173 24 -49 50 -94 57 -98 28 -17 35
-47 18 -73 -11 -17 -15 -42 -13 -82 l3 -56 33 32 c43 42 55 42 15 0 -18 -19
-33 -46 -35 -63 -3 -28 -6 -30 -43 -31 -28 0 -58 -12 -99 -37 -33 -20 -66 -37
-73 -37 -7 0 -13 -11 -13 -24 0 -20 9 -28 45 -42 39 -14 49 -15 71 -4 18 10
27 11 36 2 17 -17 80 20 119 70 44 58 54 68 39 40 -19 -37 -81 -102 -114 -119
-16 -9 -36 -22 -44 -29 -15 -16 -42 -19 -42 -5 0 5 -17 15 -37 21 -21 7 -47
18 -59 25 -11 7 -34 15 -50 17 -25 3 -29 7 -29 33 0 26 4 30 30 33 36 4 92 55
141 130 34 51 55 71 35 33 -12 -22 -76 -106 -102 -135 -31 -33 -13 -30 55 8
41 23 66 43 66 54 0 9 9 23 20 30 16 9 20 23 20 62 0 31 -4 50 -11 50 -33 0
-52 72 -23 88 14 8 13 14 -4 59 -44 116 -180 269 -246 275 -26 2 -31 7 -31 28
0 20 6 26 30 28 17 2 38 11 48 20 22 20 98 41 149 42 20 0 40 5 43 10 9 15 21
12 41 -7z m182 -188 c-3 -3 -9 2 -12 12 -6 14 -5 15 5 6 7 -7 10 -15 7 -18z
m-515 -19 c7 -19 -18 -40 -38 -32 -15 6 -20 28 -8 39 12 12 41 7 46 -7z m364
-23 c-3 -10 -5 -4 -5 12 0 17 2 24 5 18 2 -7 2 -21 0 -30z m-514 -25 c8 -12 7
-21 -2 -32 -19 -23 -58 -20 -66 4 -14 43 44 67 68 28z m514 -95 c-2 -21 -4 -6
-4 32 0 39 2 55 4 38 2 -18 2 -50 0 -70z m170 75 c-3 -8 -6 -5 -6 6 -1 11 2
17 5 13 3 -3 4 -12 1 -19z m-399 -14 c45 -31 18 -114 -38 -114 -25 0 -60 38
-60 65 0 29 32 65 58 65 10 0 28 -7 40 -16z m393 -54 c0 8 4 4 8 -10 4 -14 12
-26 19 -26 7 -1 17 -2 22 -3 6 0 10 -5 10 -10 0 -5 -10 -7 -21 -4 -15 4 -27 0
-36 -13 -14 -19 -15 -19 -11 1 3 11 -4 38 -14 60 l-19 40 20 -25 c15 -18 21
-21 22 -10z m-174 -82 c-3 -7 -5 -2 -5 12 0 14 2 19 5 13 2 -7 2 -19 0 -25z
m-582 -33 c0 -13 -8 -21 -22 -23 -19 -3 -23 1 -23 23 0 22 4 26 23 23 14 -2
22 -10 22 -23z m720 -44 c-21 -43 -29 -39 -8 4 9 19 18 33 21 31 2 -2 -4 -18
-13 -35z m-508 -13 c29 -27 29 -61 1 -88 -26 -24 -46 -25 -76 -4 -45 31 -18
114 37 114 8 0 25 -10 38 -22z m188 -53 c0 -25 -4 -31 -26 -33 -29 -3 -44 18
-33 50 4 14 13 18 32 16 23 -2 27 -8 27 -33z m283 5 c-7 -11 -17 -20 -22 -20
-5 0 -1 9 9 20 10 11 20 20 22 20 2 0 -2 -9 -9 -20z m77 -52 c-11 -6 -23 -16
-27 -22 -9 -13 -10 -3 -2 18 3 9 16 16 28 16 21 -1 21 -1 1 -12z m-50 -77
c-21 -43 -29 -39 -8 4 9 19 18 33 21 31 2 -2 -4 -18 -13 -35z m-631 12 c9 -21
-16 -46 -37 -37 -17 6 -23 35 -10 47 12 13 41 7 47 -10z m473 -75 c-3 -8 -6
-5 -6 6 -1 11 2 17 5 13 3 -3 4 -12 1 -19z m-22 -65 c-9 -15 -13 -19 -10 -8 4
11 10 29 13 40 3 11 7 14 9 8 3 -7 -3 -24 -12 -40z m-515 -206 c0 -8 -3 -17
-7 -20 -9 -9 -34 13 -27 24 8 14 34 11 34 -4z m360 -107 c0 -91 -3 -110 -15
-110 -8 0 -15 5 -15 12 0 9 -3 9 -12 0 -21 -21 -65 -14 -87 14 -51 65 4 167
74 136 24 -11 25 -10 25 23 0 24 5 35 15 35 12 0 15 -19 15 -110z m-539 46
c10 -4 20 -3 24 3 9 16 51 13 69 -5 22 -22 23 -154 1 -154 -11 0 -15 13 -15
54 0 69 -7 86 -35 86 -28 0 -35 -17 -35 -86 0 -41 -4 -54 -15 -54 -11 0 -15
16 -17 68 -3 64 -4 67 -28 67 -24 0 -25 -3 -28 -68 -2 -58 -6 -68 -20 -65 -14
3 -18 17 -20 72 -2 38 -1 74 2 81 4 13 89 13 117 1z m179 -71 c0 -69 -3 -85
-15 -85 -12 0 -15 16 -15 85 0 69 3 85 15 85 12 0 15 -16 15 -85z m166 60 c20
-27 19 -145 -1 -145 -12 0 -15 13 -15 58 0 60 -11 82 -42 82 -25 0 -38 -31
-38 -89 0 -39 -4 -51 -15 -51 -12 0 -15 16 -15 84 l0 84 56 -2 c42 -1 60 -6
70 -21z m335 15 c31 -17 22 -27 -23 -26 -54 1 -59 -24 -8 -36 33 -9 60 -31 60
-50 0 -17 -41 -48 -63 -48 -27 0 -70 28 -62 41 4 5 17 2 30 -7 27 -18 65 -11
65 12 0 8 -8 17 -17 20 -66 21 -73 27 -73 56 0 40 49 60 91 38z m351 -14 c4
-6 7 -40 7 -76 l-2 -65 -7 58 c-9 67 -14 74 -55 79 l-30 4 25 11 c26 11 50 7
62 -11z m152 13 c14 -7 27 -18 30 -25 7 -18 -2 -18 -21 2 -11 10 -24 13 -42 9
-32 -8 -41 -21 -41 -62 0 -55 49 -82 85 -47 9 9 19 13 23 10 9 -10 -39 -46
-61 -46 -28 0 -67 45 -66 77 1 41 12 64 40 79 30 16 24 16 53 3z m-403 -54 c9
-27 22 -51 27 -53 6 -2 18 22 28 52 10 31 23 56 30 56 12 0 -3 -48 -55 -182
-9 -24 -46 -46 -58 -35 -8 9 7 27 23 27 21 0 17 41 -11 116 -29 77 -29 77 -13
72 7 -3 20 -26 29 -53z m161 43 c7 -24 -4 -148 -13 -142 -12 7 -12 154 0 154
5 0 11 -6 13 -12z"/>
<path d="M651 276 c-7 -8 -11 -32 -9 -53 2 -31 7 -39 26 -41 32 -5 52 15 52
52 0 50 -42 75 -69 42z"/>
</g>
</svg>
